<svg t="1685531210609" class="icon" viewBox="0 0 1024 1024" version="1.1" xmlns="http://www.w3.org/2000/svg" p-id="1155" width="32" height="32"><path d="M584.533333 371.2c17.066667-17.066667 17.066667-42.666667 0-59.733333-17.066667-17.066667-42.666667-17.066667-59.733333 0L384 452.266667c-34.133333 34.133333-34.133333 85.333333 0 119.466666l140.8 140.8c17.066667 17.066667 42.666667 17.066667 59.733333 0 17.066667-17.066667 17.066667-42.666667 0-59.733333L443.733333 512l140.8-140.8z" fill="#303133" p-id="1156"></path><path d="M853.333333 85.333333H170.666667c-46.933333 0-85.333333 38.4-85.333334 85.333334v682.666666c0 46.933333 38.4 85.333333 85.333334 85.333334h682.666666c46.933333 0 85.333333-38.4 85.333334-85.333334V170.666667c0-46.933333-38.4-85.333333-85.333334-85.333334z m0 768H170.666667V170.666667h682.666666v682.666666z" fill="#303133" p-id="1157"></path></svg>